<svg width="264" height="264" viewBox="0 0 264 264" fill="none" xmlns="http://www.w3.org/2000/svg">
<g clip-path="url(#clip0_83_689)">
<path d="M140.105 100.968C140.105 115.558 129.453 122.505 112.084 131.768C100.737 128.063 91.0105 125.053 78.0421 125.053C75.0316 125.053 71.5579 126.442 68.0842 130.147L66.4631 128.295L77.3473 118.568C83.8316 112.779 84.5263 107.916 84.5263 103.516V95.4105H83.1368C77.8105 95.4105 74.3368 96.8 72.4842 100.505L71.3263 100.274C71.7894 88.2316 77.8105 83.8316 84.2947 83.8316H84.5263V80.3579C84.5263 74.3369 87.7684 70.1684 96.1052 65.0737L95.8737 64.8421C91.9368 65.7684 88.2316 66.6948 84.9894 66.6948C78.2737 66.6948 72.4842 61.6 68.3158 49.0948L69.4737 47.7053C70.8631 50.0211 74.1052 55.579 83.3684 55.579C92.1684 55.579 104.674 51.6421 113.474 51.6421C128.295 51.6421 140.568 57.8948 140.568 79.4316V100.968H140.105ZM101.663 63.4527H101.2C98.8842 63.9158 97.2631 65.5369 97.2631 68.5474V96.5684C97.2631 104.442 92.8631 109.537 84.5263 116.021V116.253C86.1473 115.789 88.9263 114.632 90.3158 114.632C92.6316 114.632 97.0316 115.326 101.663 116.253V63.4527ZM127.368 80.3579C127.137 68.0842 122.737 62.7579 108.611 62.7579C107.453 62.7579 105.6 62.9895 103.747 63.2211V91.2421L127.368 80.3579ZM127.368 90.5474V82.2105L103.747 93.0948V101.663L127.368 90.5474ZM127.368 92.4L103.747 103.284V116.484C110.695 118.105 118.8 120.421 123.895 122.042C126.21 120.189 127.6 115.789 127.6 106.989V92.4H127.368Z" fill="white"/>
<path d="M194.758 51.4105C188.968 56.0421 188.274 61.1369 188.274 69.4737V114.863C188.274 120.421 185.726 125.979 175.305 132.232C169.747 135.474 165.116 137.558 158.863 140.568C151.221 138.253 143.579 132.695 143.579 125.979C143.579 120.189 147.979 115.79 155.621 112.084L157.01 113.242C154.463 114.632 153.537 117.642 153.537 119.032C153.537 124.821 159.326 131.768 169.979 133.389C173.916 130.147 175.768 128.526 175.768 122.042V93.5579H174.379C169.053 93.5579 165.579 94.9474 163.726 98.6527L162.105 98.1895C162.568 85.4527 169.053 81.979 175.537 81.979H175.768V76.6527C175.768 68.3158 179.937 62.5263 185.031 58.3579L184.568 57.8948C181.558 59.7474 179.937 60.2105 178.547 60.2105C174.61 60.2105 167.2 56.9684 162.568 56.9684C160.253 56.9684 159.326 57.8948 159.326 59.979C159.326 61.1369 159.326 62.0632 159.326 62.7579H159.095C157.937 62.0632 156.084 61.3684 156.084 61.3684C156.084 56.7369 160.947 51.6421 166.737 46.0842C173.453 47.9369 183.179 51.6421 189.431 51.6421C191.284 51.6421 192.21 51.179 193.6 50.2527L194.758 51.4105Z" fill="white"/>
<path d="M59.7475 199.853C62.758 199.853 64.6106 200.547 65.7685 201.705C66.6948 202.632 67.6212 204.253 67.6212 206.105C67.6212 208.653 66.6948 210.505 65.0738 211.663C63.4527 212.821 61.3685 213.284 58.8212 213.284H53.958V212.589C55.8106 212.358 55.8106 212.358 55.8106 210.505V202.168C55.8106 200.316 55.5791 200.316 53.958 200.084V199.389H59.7475V199.853ZM57.6633 210.737C57.6633 212.358 58.358 212.821 59.9791 212.821C63.6843 212.821 65.7685 210.274 65.7685 206.568C65.7685 204.253 65.0738 202.632 63.4527 201.474C62.5264 200.779 61.3685 200.547 59.9791 200.547C59.0527 200.547 58.5896 200.779 58.358 200.779C58.1264 201.011 58.1264 201.242 58.1264 201.937V210.737H57.6633ZM74.1054 204.021C76.6527 204.021 78.737 206.105 78.737 208.653C78.737 212.126 76.1896 213.747 74.1054 213.747C71.3264 213.747 69.4738 211.432 69.4738 209.116C69.4738 205.642 72.2527 204.021 74.1054 204.021ZM73.8738 204.716C72.4843 204.716 71.558 205.874 71.558 208.421C71.558 210.968 72.7159 213.053 74.3369 213.053C75.7264 213.053 76.6527 212.126 76.6527 209.347C76.8843 206.8 75.7264 204.716 73.8738 204.716ZM91.7054 213.516V212.821C92.8633 212.589 93.0948 212.589 93.0948 211.2V207.726C93.0948 206.337 92.6317 205.411 91.2422 205.411C90.5475 205.411 89.6212 205.874 88.9264 206.568C88.9264 206.8 88.9264 207.032 88.9264 207.495V211.432C88.9264 212.821 89.158 212.821 90.3159 213.053V213.747H85.6843V213.053C87.0738 212.821 87.0738 212.821 87.0738 211.432V207.726C87.0738 206.105 86.6106 205.411 85.2212 205.411C84.2948 205.411 83.6001 205.874 82.9054 206.568V211.432C82.9054 212.821 83.137 212.821 84.2948 213.053V213.747H79.8948V213.053C81.2843 212.821 81.2843 212.821 81.2843 211.432V207.032C81.2843 205.642 81.2843 205.642 80.1264 205.411V204.947C81.0527 204.716 81.9791 204.484 83.137 204.021C83.137 204.484 83.137 205.179 83.137 205.642C83.6001 205.411 84.0633 204.947 84.758 204.484C85.2212 204.253 85.6843 204.021 86.3791 204.021C87.3054 204.021 88.2317 204.716 88.6948 205.642C89.3896 205.179 89.8527 204.716 90.3159 204.484C90.7791 204.253 91.4738 204.021 91.937 204.021C93.558 204.021 94.4843 205.179 94.4843 207.263V211.2C94.4843 212.589 94.7159 212.589 95.8738 212.821V213.516H91.7054ZM103.979 213.747C103.747 213.747 103.284 213.516 103.053 213.284C102.821 213.053 102.59 212.821 102.59 212.358C101.663 212.821 100.737 213.747 100.042 213.747C98.6527 213.747 97.4948 212.589 97.4948 211.2C97.4948 210.274 97.958 209.579 99.1159 209.116C100.505 208.653 101.895 208.189 102.358 207.726V207.263C102.358 205.874 101.663 204.947 100.505 204.947C100.042 204.947 99.8106 205.179 99.5791 205.411C99.3475 205.642 99.1159 206.105 99.1159 206.8C99.1159 207.032 98.8843 207.263 98.4212 207.263C97.958 207.263 97.4948 206.8 97.4948 206.337C97.4948 206.105 97.7264 205.874 98.1896 205.411C98.8843 204.947 100.042 204.253 101.2 204.021C101.895 204.021 102.59 204.253 103.053 204.484C103.747 205.179 104.211 205.874 104.211 206.8V210.737C104.211 211.663 104.674 211.895 104.905 211.895C105.137 211.895 105.369 211.895 105.6 211.663L105.832 212.358L103.979 213.747ZM102.358 208.421C101.895 208.653 100.969 209.116 100.505 209.347C99.8106 209.811 99.1159 210.042 99.1159 210.968C99.1159 212.126 100.042 212.589 100.505 212.589C100.969 212.589 101.895 212.358 102.126 211.895C102.358 210.737 102.358 209.347 102.358 208.421ZM106.526 213.516V212.821C107.916 212.589 107.916 212.589 107.916 211.2V206.8C107.916 205.411 107.916 205.411 106.526 205.179V204.716C107.684 204.484 108.611 204.253 109.537 203.789C109.537 204.716 109.537 205.642 109.537 206.337V210.968C109.537 212.358 109.769 212.589 110.926 212.589V213.284H106.526V213.516ZM108.611 201.937C107.916 201.937 107.453 201.474 107.453 200.779C107.453 200.084 107.916 199.621 108.611 199.621C109.305 199.621 109.769 200.084 109.769 200.779C109.769 201.474 109.305 201.937 108.611 201.937ZM118.105 213.516V212.821C119.263 212.589 119.495 212.589 119.495 211.2V207.726C119.495 206.337 119.032 205.179 117.642 205.179C116.716 205.179 116.021 205.642 115.326 206.337V211.2C115.326 212.589 115.558 212.589 116.716 212.821V213.516H112.316V212.821C113.705 212.589 113.705 212.589 113.705 211.2V206.8C113.705 205.411 113.474 205.411 112.316 205.179V204.716C113.242 204.484 114.4 204.253 115.326 203.789C115.326 204.253 115.326 204.947 115.326 205.411C115.79 205.179 116.253 204.716 116.716 204.484C117.411 204.021 117.874 203.789 118.337 203.789C119.958 203.789 121.116 204.947 121.116 207.032V210.968C121.116 212.358 121.347 212.358 122.505 212.589V213.284H118.105V213.516ZM131.305 211.663C129.916 213.284 128.526 213.747 127.832 213.747C125.284 213.747 123.663 211.663 123.663 209.347C123.663 207.958 124.126 206.568 125.053 205.642C125.979 204.716 127.137 204.021 128.063 204.021C129.916 204.021 131.305 205.642 131.305 207.263C131.305 207.726 131.305 207.958 130.842 207.958C130.379 207.958 127.832 208.189 125.284 208.421C125.284 211.2 126.905 212.358 128.526 212.358C129.453 212.358 130.147 211.895 130.842 211.2L131.305 211.663ZM127.832 204.947C126.905 204.947 125.979 205.874 125.747 207.495C126.905 207.495 128.063 207.495 129.221 207.495C129.684 207.495 129.684 207.495 129.684 207.032C129.684 205.874 128.99 204.947 127.832 204.947ZM143.347 200.547C141.726 200.779 141.495 200.779 141.495 202.632V210.274C141.495 213.053 141.032 214.442 139.642 215.832C138.947 216.526 138.253 216.758 137.79 216.989L137.558 216.295C138.716 215.6 139.411 214.674 139.642 213.516C139.874 212.589 139.874 211.2 139.874 209.579V202.632C139.874 200.779 139.642 200.779 138.021 200.547V199.853H143.579V200.547H143.347ZM148.674 204.021C151.221 204.021 153.305 206.105 153.305 208.653C153.305 212.126 150.758 213.747 148.674 213.747C145.895 213.747 144.042 211.432 144.042 209.116C144.042 205.642 146.821 204.021 148.674 204.021ZM148.442 204.716C147.053 204.716 146.126 205.874 146.126 208.421C146.126 210.968 147.284 213.053 148.905 213.053C150.295 213.053 151.221 212.126 151.221 209.347C151.453 206.8 150.295 204.716 148.442 204.716ZM164.884 213.053C163.958 213.284 162.8 213.516 161.642 213.747C161.642 213.516 161.642 212.589 161.642 212.126C160.484 213.053 159.558 213.747 158.4 213.747C157.011 213.747 155.853 212.821 155.853 210.505V206.568C155.853 205.411 155.621 205.411 155.158 205.179H154.463V204.716C155.39 204.716 156.779 204.484 157.474 204.253C157.474 204.947 157.474 205.874 157.474 207.263V210.042C157.474 211.895 158.4 212.358 159.326 212.358C160.021 212.358 160.947 212.126 161.642 211.432V206.568C161.642 205.411 161.411 205.179 160.716 205.179H160.021V204.716C161.411 204.716 162.8 204.484 163.263 204.253V211.2C163.263 212.358 163.495 212.358 164.19 212.358H164.884V213.053ZM170.674 213.516H165.811V212.821C167.2 212.589 167.2 212.589 167.2 211.2V206.8C167.2 205.411 167.2 205.411 165.811 205.179V204.716C166.737 204.484 167.663 204.253 168.821 203.789C168.821 204.484 168.821 205.411 168.821 206.105C169.516 204.947 170.442 203.789 171.369 203.789C172.063 203.789 172.526 204.253 172.526 204.716C172.526 205.179 172.295 205.642 171.832 205.874C171.6 206.105 171.369 205.874 171.369 205.874C171.137 205.642 170.905 205.411 170.442 205.411C169.979 205.411 169.284 206.105 168.821 207.032V210.968C168.821 212.358 168.821 212.358 170.442 212.589V213.516H170.674ZM183.642 213.053C183.179 213.053 181.558 213.284 180.4 213.747C180.4 213.284 180.4 212.821 180.4 212.358C179.937 212.589 179.474 212.821 179.011 213.053C178.084 213.516 177.621 213.747 177.39 213.747C175.769 213.747 173.453 212.126 173.453 209.116C173.453 206.105 176 204.021 178.779 204.021C179.011 204.021 179.705 204.021 180.169 204.253V201.242C180.169 199.853 179.937 199.853 178.547 199.853V199.158C179.705 198.926 181.095 198.695 181.79 198.463C181.79 199.158 181.79 200.084 181.79 201.011V210.968C181.79 212.126 182.021 212.126 182.716 212.358H183.411V213.053H183.642ZM180.4 205.874C179.937 205.179 179.011 204.716 178.316 204.716C177.39 204.716 175.537 205.411 175.537 208.421C175.537 210.968 177.158 212.358 178.547 212.358C179.242 212.358 180.169 211.895 180.632 211.663V205.874H180.4ZM191.284 213.747C191.053 213.747 190.59 213.516 190.358 213.284C190.126 213.053 189.895 212.821 189.895 212.358C188.969 212.821 188.042 213.747 187.347 213.747C185.958 213.747 184.8 212.589 184.8 211.2C184.8 210.274 185.263 209.579 186.421 209.116C187.811 208.653 189.2 208.189 189.663 207.726V207.263C189.663 205.874 188.969 204.947 187.811 204.947C187.347 204.947 187.116 205.179 186.884 205.411C186.653 205.642 186.421 206.105 186.421 206.8C186.421 207.032 186.19 207.263 185.726 207.263C185.263 207.263 184.8 206.8 184.8 206.337C184.8 206.105 185.032 205.874 185.495 205.411C186.19 204.947 187.347 204.253 188.505 204.021C189.2 204.021 189.895 204.253 190.358 204.484C191.053 205.179 191.516 205.874 191.516 206.8V210.737C191.516 211.663 191.979 211.895 192.211 211.895C192.442 211.895 192.674 211.895 192.905 211.663L193.137 212.358L191.284 213.747ZM189.895 208.421C189.432 208.653 188.505 209.116 188.042 209.347C187.347 209.811 186.653 210.042 186.653 210.968C186.653 212.126 187.579 212.589 188.042 212.589C188.505 212.589 189.432 212.358 189.663 211.895C189.895 210.737 189.895 209.347 189.895 208.421ZM200.084 213.516V212.821C201.242 212.589 201.474 212.589 201.474 211.2V207.726C201.474 206.337 201.011 205.179 199.621 205.179C198.695 205.179 198 205.642 197.305 206.337V211.2C197.305 212.589 197.537 212.589 198.695 212.821V213.516H194.295V212.821C195.684 212.589 195.684 212.589 195.684 211.2V206.8C195.684 205.411 195.453 205.411 194.295 205.179V204.716C195.221 204.484 196.379 204.253 197.305 203.789C197.305 204.253 197.305 204.947 197.305 205.411C197.768 205.179 198.232 204.716 198.695 204.484C199.39 204.021 199.853 203.789 200.316 203.789C201.937 203.789 203.095 204.947 203.095 207.032V210.968C203.095 212.358 203.326 212.358 204.484 212.589V213.284H200.084V213.516Z" fill="white"/>
<mask id="mask0_83_689" style="mask-type:luminance" maskUnits="userSpaceOnUse" x="-621" y="-120" width="1951" height="1380">
<path d="M1329.26 -119.495H-620.4V1259.09H1329.26V-119.495Z" fill="white"/>
</mask>
<g mask="url(#mask0_83_689)">
<path d="M60.9053 171.6C61.1369 171.137 61.8316 170.674 62.0632 170.442C62.758 169.516 63.2211 168.358 63.4527 167.2C63.6843 162.8 58.8211 161.642 55.3474 161.874C51.4106 162.105 47.7053 163.726 45.158 166.737C42.1474 170.674 41.9159 176.463 44.4632 180.4C47.0106 184.337 51.8738 186.653 56.7369 186.653C61.6001 186.653 66.2317 184.8 70.1685 182.253C73.8738 179.937 77.3474 177.389 80.5895 174.379C83.6001 171.832 86.1474 169.053 89.6211 167.2C92.8632 165.579 96.5685 164.653 100.042 165.116C102.126 165.347 104.211 165.811 105.832 167.432C107.916 169.516 108.379 172.758 107.453 175.305C106.526 178.084 104.442 180.168 101.895 181.558C98.1895 183.642 93.558 183.642 92.4001 178.779C92.4001 178.779 90.779 177.389 91.0106 179.705C91.2422 181.326 92.8632 183.179 94.0211 184.105C96.3369 185.958 99.579 185.726 102.126 184.568C105.6 183.179 108.611 180.4 110.232 176.695C111.621 173.221 111.39 168.821 109.305 165.811C107.221 162.8 103.747 160.947 100.042 160.484C92.8632 159.558 85.6843 162.8 79.8948 166.737C79.2001 167.2 75.958 163.032 75.7264 162.568C74.8001 160.253 76.4211 158.4 78.2738 157.242C80.358 156.084 82.9053 156.316 84.9896 157.474C84.9896 157.474 84.9896 154.463 84.9896 154.232C84.5264 152.611 83.6001 151.453 82.2106 150.989C81.0527 150.526 79.6632 150.526 78.5053 150.526C76.4211 150.758 74.5685 151.453 72.9474 152.611C66.2317 157.705 71.558 164.884 76.6527 168.358C76.6527 168.358 69.9369 173.684 69.2422 174.147C65.5369 176.463 61.3685 177.621 56.9685 177.853C54.6527 177.853 52.1053 177.389 50.4843 175.537C49.7895 174.611 49.558 173.684 49.3264 172.526C49.0948 169.979 50.2527 167.432 52.1053 166.042C53.4948 164.884 55.3474 164.421 57.2001 164.653C60.6738 165.579 61.8316 168.821 60.9053 171.6Z" fill="white"/>
</g>
<mask id="mask1_83_689" style="mask-type:luminance" maskUnits="userSpaceOnUse" x="-621" y="-120" width="1951" height="1380">
<path d="M1329.26 -119.495H-620.4V1259.09H1329.26V-119.495Z" fill="white"/>
</mask>
<g mask="url(#mask1_83_689)">
<path d="M200.316 171.832C200.084 171.368 199.621 170.905 199.158 170.674C198.463 169.747 198 168.589 198 167.432C197.769 163.032 202.632 161.874 206.105 162.105C210.042 162.337 213.747 163.958 216.063 167.2C219.074 171.137 219.305 176.926 216.526 180.863C213.979 184.8 208.884 186.884 204.253 186.884C199.39 186.884 194.758 185.032 190.821 182.484C187.116 180.168 183.874 177.389 180.632 174.611C177.621 172.063 175.074 169.284 171.6 167.432C168.358 165.811 164.884 164.884 161.179 165.116C159.095 165.347 157.011 165.81 155.39 167.2C153.305 169.053 152.611 172.295 153.537 175.074C154.463 177.853 156.547 179.937 158.863 181.558C162.569 183.642 167.2 183.642 168.358 179.011C168.358 179.011 169.979 177.621 169.747 180.168C169.516 181.789 167.895 183.642 166.737 184.568C164.19 186.421 161.179 186.189 158.4 185.032C154.926 183.411 151.916 180.632 150.526 177.158C149.137 173.684 149.369 169.284 151.453 166.274C153.537 163.263 157.011 161.411 160.716 160.947C167.895 160.021 175.074 163.495 180.632 167.432C181.326 167.895 184.569 163.958 184.8 163.263C185.726 160.947 184.337 159.095 182.253 157.937C180.169 156.779 177.853 157.01 175.537 157.937C175.537 157.937 175.537 154.926 175.537 154.695C176 153.074 176.926 151.916 178.316 151.453C179.474 150.989 180.863 150.989 182.021 150.989C184.105 151.221 185.958 151.916 187.579 153.074C194.295 158.4 188.737 165.347 183.642 168.821C183.642 168.821 190.358 174.379 191.053 174.842C194.758 177.158 198.926 178.547 203.326 178.779C205.642 178.779 208.19 178.547 209.811 176.695C210.505 175.768 210.969 174.842 210.969 173.684C211.2 171.137 210.042 168.589 208.19 167.2C206.8 166.042 204.947 165.347 203.095 165.81C200.779 165.81 199.621 169.053 200.316 171.832Z" fill="white"/>
</g>
<mask id="mask2_83_689" style="mask-type:luminance" maskUnits="userSpaceOnUse" x="-621" y="-120" width="1951" height="1380">
<path d="M1329.26 -119.495H-620.4V1259.09H1329.26V-119.495Z" fill="white"/>
</mask>
<g mask="url(#mask2_83_689)">
<path d="M119.263 168.358L128.295 159.095C128.99 158.4 130.379 158.4 131.074 159.095L140.337 168.358C141.032 169.053 141.032 170.211 140.569 170.905L131.305 182.716C130.611 183.642 128.99 183.642 128.295 182.716L119.263 170.905C118.337 170.211 118.569 169.053 119.263 168.358Z" fill="white"/>
</g>
</g>
<defs>
<clipPath id="clip0_83_689">
<rect width="264" height="264" fill="white"/>
</clipPath>
</defs>
</svg>
