<svg width="50" height="50" viewBox="0 0 50 50" fill="none" xmlns="http://www.w3.org/2000/svg">
<g clip-path="url(#clip0_63_959)">
<path d="M35.6742 45.0854H14.3261C13.9053 45.0854 13.5667 44.7468 13.5667 44.3259C13.5667 43.905 13.9053 43.5664 14.3261 43.5664H35.6774C36.0983 43.5664 36.4369 43.905 36.4369 44.3259C36.4369 44.7468 36.0951 45.0854 35.6742 45.0854Z" fill="black"/>
<path d="M44.7469 45.0854H43.6267C43.2058 45.0854 42.8672 44.7468 42.8672 44.3259C42.8672 43.905 43.2058 43.5664 43.6267 43.5664H44.7469C46.421 43.5664 47.7849 42.2025 47.7849 40.5284V38.386C47.7849 36.9905 46.8387 35.7784 45.4874 35.4398L40.3735 34.155C39.576 33.9557 38.845 33.5411 38.2627 32.9588L31.7881 26.4841C31.2216 25.9177 30.44 25.5949 29.6393 25.5949H11.4273C10.6172 25.5949 9.85135 25.9114 9.27857 26.4841L3.10452 32.6519C2.53173 33.2278 2.21528 33.9905 2.21528 34.8006V40.5284C2.21528 42.2025 3.5792 43.5664 5.25325 43.5664H6.3735C6.79439 43.5664 7.133 43.905 7.133 44.3259C7.133 44.7468 6.79439 45.0854 6.3735 45.0854H5.25325C2.74059 45.0854 0.696289 43.0411 0.696289 40.5284V34.8006C0.696289 33.5822 1.17097 32.4398 2.03173 31.5791L8.20578 25.405C9.06654 24.5443 10.2121 24.0696 11.4273 24.0696H29.6393C30.8577 24.0696 32.0001 24.5443 32.8608 25.405L39.3355 31.8797C39.7248 32.2689 40.2121 32.5443 40.7438 32.6772L45.8577 33.962C47.8862 34.4715 49.3039 36.2879 49.3039 38.3829V40.5284C49.3039 43.0411 47.2596 45.0854 44.7469 45.0854Z" fill="black"/>
<path d="M34.5982 35.4303H6.46533C5.89887 35.4303 5.39571 35.0917 5.17735 34.5695C4.96216 34.0474 5.07925 33.4524 5.47798 33.0537L10.3862 28.1455C10.7691 27.7626 11.2786 27.5537 11.8198 27.5537H29.2438C29.7849 27.5537 30.2944 27.7657 30.6774 28.1455L35.5856 33.0537C35.9843 33.4524 36.1046 34.0474 35.8862 34.5695C35.6679 35.0917 35.1647 35.4303 34.5982 35.4303ZM6.76912 33.9113H34.2913L29.6014 29.2183C29.5065 29.1233 29.3799 29.0695 29.2438 29.0695H11.8198C11.6837 29.0695 11.5571 29.1233 11.4622 29.2183L6.76912 33.9113Z" fill="black"/>
<path d="M14.6172 35.4303C14.1963 35.4303 13.8577 35.0917 13.8577 34.6708V28.31C13.8577 27.8891 14.1963 27.5505 14.6172 27.5505C15.038 27.5505 15.3767 27.8891 15.3767 28.31V34.6676C15.3767 35.0885 15.0349 35.4303 14.6172 35.4303Z" fill="black"/>
<path d="M21.383 35.4303C20.9621 35.4303 20.6235 35.0917 20.6235 34.6708V28.31C20.6235 27.8891 20.9621 27.5505 21.383 27.5505C21.8039 27.5505 22.1425 27.8891 22.1425 28.31V34.6676C22.1425 35.0885 21.8039 35.4303 21.383 35.4303Z" fill="black"/>
<path d="M10.3482 49.0633C7.73743 49.0633 5.61401 46.9399 5.61401 44.3292C5.61401 41.7184 7.73743 39.595 10.3482 39.595C12.959 39.595 15.0824 41.7184 15.0824 44.3292C15.0824 46.9399 12.959 49.0633 10.3482 49.0633ZM10.3482 41.1108C8.57604 41.1108 7.133 42.5538 7.133 44.326C7.133 46.0981 8.57604 47.5412 10.3482 47.5412C12.1203 47.5412 13.5634 46.0981 13.5634 44.326C13.5665 42.5538 12.1235 41.1108 10.3482 41.1108Z" fill="black"/>
<path d="M10.3481 46.4145C9.19623 46.4145 8.25952 45.4778 8.25952 44.3259C8.25952 43.174 9.19623 42.2373 10.3481 42.2373C11.5 42.2373 12.4367 43.174 12.4367 44.3259C12.4367 45.4778 11.5 46.4145 10.3481 46.4145ZM10.3481 43.7563C10.0348 43.7563 9.77851 44.0126 9.77851 44.3259C9.77851 44.6392 10.0348 44.8955 10.3481 44.8955C10.6614 44.8955 10.9177 44.6392 10.9177 44.3259C10.9177 44.0126 10.6646 43.7563 10.3481 43.7563Z" fill="black"/>
<path d="M39.6519 49.0633C37.0411 49.0633 34.9177 46.9399 34.9177 44.3292C34.9177 41.7184 37.0411 39.595 39.6519 39.595C42.2627 39.595 44.3861 41.7184 44.3861 44.3292C44.3861 46.9399 42.2627 49.0633 39.6519 49.0633ZM39.6519 41.1108C37.8797 41.1108 36.4367 42.5538 36.4367 44.326C36.4367 46.0981 37.8797 47.5412 39.6519 47.5412C41.4241 47.5412 42.8671 46.0981 42.8671 44.326C42.8671 42.5538 41.4241 41.1108 39.6519 41.1108Z" fill="black"/>
<path d="M39.6521 46.4145C38.5002 46.4145 37.5635 45.4778 37.5635 44.3259C37.5635 43.174 38.5002 42.2373 39.6521 42.2373C40.804 42.2373 41.7407 43.174 41.7407 44.3259C41.7407 45.4778 40.804 46.4145 39.6521 46.4145ZM39.6521 43.7563C39.3388 43.7563 39.0825 44.0126 39.0825 44.3259C39.0825 44.6392 39.3388 44.8955 39.6521 44.8955C39.9654 44.8955 40.2217 44.6392 40.2217 44.3259C40.2217 44.0126 39.9654 43.7563 39.6521 43.7563Z" fill="black"/>
<path d="M48.5443 40.1076H46.1804C45.7595 40.1076 45.4209 39.769 45.4209 39.3481C45.4209 38.9272 45.7595 38.5886 46.1804 38.5886H48.5443C48.9652 38.5886 49.3038 38.9272 49.3038 39.3481C49.3038 39.769 48.9652 40.1076 48.5443 40.1076Z" fill="black"/>
<path d="M16.3862 39.4587H18.3008V41.3733H16.3862V39.4587Z" fill="black"/>
<path d="M18.3008 37.5442H20.2153V39.4587H18.3008V37.5442Z" fill="black"/>
<path d="M20.2153 39.4587H22.1299V41.3733H20.2153V39.4587Z" fill="black"/>
<path d="M22.1299 37.5442H24.0444V39.4587H22.1299V37.5442Z" fill="black"/>
<path d="M24.0444 39.4587H25.959V41.3733H24.0444V39.4587Z" fill="black"/>
<path d="M25.9558 37.5442H27.8704V39.4587H25.9558V37.5442Z" fill="black"/>
<path d="M27.8704 39.4587H29.7849V41.3733H27.8704V39.4587Z" fill="black"/>
<path d="M29.7849 37.5442H31.6995V39.4587H29.7849V37.5442Z" fill="black"/>
<path d="M31.6995 39.4587H33.614V41.3733H31.6995V39.4587Z" fill="black"/>
<path d="M23.8356 25.5886H17.228C16.9875 25.5886 16.7596 25.4746 16.6172 25.2816C16.4748 25.0886 16.4305 24.8386 16.5033 24.6075L17.1773 22.4113C17.44 21.5569 18.2185 20.981 19.114 20.981H21.9526C22.8482 20.981 23.6267 21.5569 23.8894 22.4113L24.5634 24.6075C24.633 24.8386 24.5919 25.0886 24.4495 25.2816C24.3039 25.4746 24.0761 25.5886 23.8356 25.5886ZM18.2564 24.0696H22.8071L22.4337 22.8544C22.3672 22.6392 22.1742 22.4968 21.9495 22.4968H19.114C18.8894 22.4968 18.6963 22.6392 18.6299 22.8544L18.2564 24.0696Z" fill="black"/>
<path d="M44.8165 18.0063H36.8102C36.3893 18.0063 36.0507 17.6677 36.0507 17.2468C36.0507 16.8259 36.3893 16.4873 36.8102 16.4873H44.8165C45.4621 16.4873 46.0697 16.2373 46.5253 15.7784L46.6456 15.6582C46.8703 15.4335 47.0475 15.1677 47.1678 14.8734C47.2912 14.5791 47.3513 14.2689 47.3513 13.9493C47.3513 13.3955 47.1583 12.8512 46.807 12.4208C46.7564 12.3575 46.6994 12.2974 46.6424 12.2404L43.8228 9.42083C43.3671 8.96513 42.7595 8.71196 42.114 8.71196H19.5602C19.2057 8.71196 18.9019 8.46829 18.8197 8.12336L18.3671 6.17082C18.1076 5.05057 17.3829 4.08538 16.3829 3.52209L15.4494 2.99677V9.8607C15.4462 13.5126 18.4209 16.4873 22.0728 16.4873H31.1646C31.5855 16.4873 31.9241 16.8259 31.9241 17.2468C31.9241 17.6677 31.5855 18.0063 31.1646 18.0063H22.0728C19.8956 18.0063 17.8513 17.1582 16.3133 15.6202C14.7753 14.0822 13.9272 12.0347 13.9272 9.8607V1.69614C13.9272 1.42715 14.0697 1.17715 14.3038 1.04108C14.538 0.905002 14.826 0.901837 15.0602 1.03475L17.1266 2.19931C18.4969 2.97146 19.4905 4.29424 19.845 5.82589L20.1646 7.19614H42.1171C43.1678 7.19614 44.1551 7.60437 44.8988 8.34804L47.7184 11.1677C47.8102 11.2594 47.9019 11.3607 47.9842 11.462C48.557 12.1613 48.8703 13.0442 48.8703 13.9493C48.8703 14.4683 48.769 14.9746 48.5697 15.4556C48.3703 15.9366 48.0855 16.3639 47.7184 16.731L47.5981 16.8512C46.8545 17.5949 45.8671 18.0063 44.8165 18.0063Z" fill="black"/>
<path d="M29.383 21.307C29.114 21.307 28.8672 21.1677 28.7311 20.9367C28.595 20.7057 28.5887 20.4209 28.7153 20.1867L31.7058 14.6487C31.8387 14.4019 32.095 14.25 32.3735 14.25H38.2438C38.4938 14.25 38.7311 14.3734 38.8703 14.5823C39.0096 14.7911 39.0412 15.0538 38.9495 15.288C38.9241 15.3513 38.3292 16.8354 36.8545 18.3165C35.9874 19.1867 34.9938 19.8797 33.8988 20.3766C32.5349 20.9905 31.0159 21.307 29.383 21.307ZM32.826 15.7658L30.6994 19.7057C32.69 19.4589 34.3957 18.6297 35.7817 17.2405C36.3039 16.7184 36.6931 16.1962 36.9716 15.7658H32.826Z" fill="black"/>
<path d="M47.3957 12.7024H40.902C39.6235 12.7024 38.4178 12.2119 37.5001 11.3259C36.5855 10.4398 36.0571 9.25307 36.0128 7.98091C35.9969 7.56319 36.326 7.20876 36.7438 7.1961C37.1615 7.18028 37.5159 7.5094 37.5286 7.92712C37.5919 9.75307 39.076 11.1834 40.902 11.1834H47.3957C47.8166 11.1834 48.1552 11.5221 48.1552 11.9429C48.1552 12.3638 47.8166 12.7024 47.3957 12.7024Z" fill="black"/>
<path d="M34.364 11.4777H32.7785C32.3577 11.4777 32.019 11.1391 32.019 10.7182C32.019 10.2973 32.3577 9.95874 32.7785 9.95874H34.364C34.7849 9.95874 35.1235 10.2973 35.1235 10.7182C35.1235 11.1391 34.7849 11.4777 34.364 11.4777Z" fill="black"/>
<path d="M30.1203 11.4777H28.5349C28.114 11.4777 27.7754 11.1391 27.7754 10.7182C27.7754 10.2973 28.114 9.95874 28.5349 9.95874H30.1203C30.5412 9.95874 30.8798 10.2973 30.8798 10.7182C30.8798 11.1391 30.5412 11.4777 30.1203 11.4777Z" fill="black"/>
<path d="M25.8767 11.4777H24.2912C23.8703 11.4777 23.5317 11.1391 23.5317 10.7182C23.5317 10.2973 23.8703 9.95874 24.2912 9.95874H25.8767C26.2976 9.95874 26.6362 10.2973 26.6362 10.7182C26.6362 11.1391 26.2944 11.4777 25.8767 11.4777Z" fill="black"/>
<path d="M21.633 11.4777H20.0476C19.6267 11.4777 19.2881 11.1391 19.2881 10.7182C19.2881 10.2973 19.6267 9.95874 20.0476 9.95874H21.633C22.0539 9.95874 22.3925 10.2973 22.3925 10.7182C22.3925 11.1391 22.0507 11.4777 21.633 11.4777Z" fill="black"/>
<path d="M11.2755 8.87324H1.88938C1.46849 8.87324 1.12988 8.53463 1.12988 8.11374C1.12988 7.69286 1.46849 7.35425 1.88938 7.35425H11.2755C11.6963 7.35425 12.0349 7.69286 12.0349 8.11374C12.0349 8.53463 11.6963 8.87324 11.2755 8.87324Z" fill="black"/>
<path d="M11.2755 11.8796H5.07932C4.65843 11.8796 4.31982 11.541 4.31982 11.1201C4.31982 10.6992 4.65843 10.3606 5.07932 10.3606H11.2755C11.6964 10.3606 12.035 10.6992 12.035 11.1201C12.035 11.541 11.6964 11.8796 11.2755 11.8796Z" fill="black"/>
<path d="M11.2755 14.8891H1.88938C1.46849 14.8891 1.12988 14.5505 1.12988 14.1296C1.12988 13.7087 1.46849 13.3701 1.88938 13.3701H11.2755C11.6963 13.3701 12.0349 13.7087 12.0349 14.1296C12.0349 14.5505 11.6963 14.8891 11.2755 14.8891Z" fill="black"/>
</g>
<defs>
<clipPath id="clip0_63_959">
<rect width="50" height="50" fill="white"/>
</clipPath>
</defs>
</svg>
