<svg width="50" height="50" viewBox="0 0 50 50" fill="none" xmlns="http://www.w3.org/2000/svg">
<g clip-path="url(#clip0_83_444)">
<path fill-rule="evenodd" clip-rule="evenodd" d="M29.9427 37.2887C28.9399 37.2887 27.1765 34.1736 22.1834 37.1601C21.9886 37.2761 21.7436 37.2708 21.5556 37.1446C19.5742 35.8171 15.9877 35.1248 14.6485 37.0119C14.4601 37.2776 14.091 37.3385 13.8273 37.1478C12.4878 36.181 9.57836 34.8166 8.15394 36.5797C8.11117 36.6322 8.0599 36.6767 8.00159 36.7124C5.69709 38.1131 2.9798 36.0858 3.95744 35.271C4.2047 35.0642 4.57385 35.097 4.78068 35.3434C4.89406 35.4752 5.88899 36.5592 7.31311 35.758C9.13832 33.6243 12.2157 34.7176 14.0605 35.8915C15.9657 33.9389 19.6176 34.6031 21.8928 35.9718C24.8828 34.2661 27.2585 34.2694 29.9286 35.9894C32.3386 34.3406 35.1986 34.3315 37.5584 35.966C42.79 33.1728 42.9239 35.816 45.8351 36.0744C47.3999 36.2132 47.7019 34.6039 48.4593 35.2649C49.3241 36.019 47.2282 37.3737 45.7323 37.2413C42.2205 36.9307 42.8794 34.3511 37.7958 37.1701C37.5918 37.2832 37.3402 37.2638 37.1544 37.1217C35.0667 35.5145 32.4388 35.5324 30.2969 37.1677C30.1932 37.2489 30.0681 37.289 29.9427 37.289V37.2887Z" fill="black"/>
<path fill-rule="evenodd" clip-rule="evenodd" d="M29.9426 42.1663C28.9421 42.1663 27.1664 39.05 22.1833 42.0377C21.9885 42.1543 21.7436 42.1487 21.5555 42.0222C19.5729 40.6947 15.9873 40.0024 14.6484 41.8892C14.4606 42.1537 14.0924 42.2161 13.8278 42.0254C12.4883 41.0586 9.57857 39.6948 8.15444 41.4573C8.11167 41.5098 8.0604 41.5549 8.0021 41.59C5.68558 42.9884 2.98382 40.9622 3.95794 40.1486C4.20521 39.9415 4.57347 39.9746 4.78119 40.2207C4.8931 40.3508 5.88861 41.4377 7.31391 40.6358C9.13941 38.5021 12.2165 39.5958 14.061 40.7688C15.9665 38.8153 19.6178 39.4798 21.8933 40.8494C24.8821 39.1437 27.2578 39.1467 29.9291 40.867C32.3391 39.2173 35.1985 39.2082 37.5584 40.8436C42.7876 38.0513 42.9174 40.6889 45.8354 40.9519C47.4007 41.0935 47.7016 39.4801 48.4595 40.1419C49.3237 40.8966 47.229 42.2516 45.7325 42.1188C42.2236 41.8077 42.8731 39.2281 37.796 42.0474C37.5921 42.1607 37.3404 42.1417 37.1547 41.999C35.0669 40.3924 32.4393 40.4097 30.2971 42.0453C30.1925 42.1262 30.0671 42.1666 29.942 42.1666L29.9426 42.1663Z" fill="black"/>
<path fill-rule="evenodd" clip-rule="evenodd" d="M29.9427 47.0439C28.9521 47.0439 27.1653 43.929 22.1834 46.9153C21.9885 47.0316 21.7436 47.026 21.5555 46.8998C19.5742 45.5723 15.9876 44.88 14.6485 46.767C14.4607 47.0319 14.0924 47.0943 13.8279 46.9036C12.4884 45.9356 9.57803 44.573 8.15449 46.3355C8.1123 46.3879 8.06045 46.433 8.00214 46.4682C5.68475 47.8674 2.98386 45.8395 3.95799 45.0268C4.20525 44.82 4.57352 44.8522 4.78123 45.0989C4.89315 45.2295 5.88866 46.3162 7.31396 45.514C9.13916 43.3809 12.2159 44.474 14.0611 45.647C15.9659 43.6935 19.6184 44.3585 21.8933 45.7273C24.8834 44.0222 27.2591 44.0248 29.9292 45.7449C32.3383 44.0957 35.1991 44.0861 37.5584 45.7217C42.7891 42.9285 42.9206 45.5688 45.8354 45.8301C47.4004 45.9704 47.7013 44.3588 48.4595 45.0201C49.3238 45.7739 47.2296 47.13 45.7326 46.997C42.219 46.685 42.8793 44.1066 37.796 46.9252C37.5921 47.0386 37.3404 47.0193 37.1547 46.8769C35.067 45.2703 32.4394 45.287 30.2972 46.9229C30.1926 47.0038 30.0672 47.0445 29.9421 47.0445L29.9427 47.0439Z" fill="black"/>
<path fill-rule="evenodd" clip-rule="evenodd" d="M33.083 29.9221C32.9081 29.9221 32.7355 29.8444 32.6195 29.695L29.8363 26.1105H10.6122C10.444 26.1105 10.2847 26.0382 10.1733 25.9128L4.42174 19.4121C4.09069 19.0382 4.35231 18.4453 4.85241 18.4379L8.30154 18.3884C8.48758 18.3908 8.65897 18.4693 8.77205 18.6137L11.9704 22.7156H28.3972C28.578 22.7156 28.7488 22.7994 28.8601 22.9424L33.5453 28.9769C33.8471 29.3657 33.5558 29.9221 33.0827 29.9221H33.083ZM10.8765 24.9386H28.9269L28.1107 23.8872H11.6842C11.5034 23.8872 11.3332 23.8037 11.2219 23.6616L8.02674 19.5641L6.14499 19.5911L10.8767 24.9386H10.8765Z" fill="black"/>
<path fill-rule="evenodd" clip-rule="evenodd" d="M7.31969 29.9218C6.8234 29.9218 6.54713 29.3332 6.87643 28.9524L10.1694 25.1417C10.6742 24.5578 11.5601 25.3248 11.0562 25.9078L7.76325 29.7188C7.64723 29.8533 7.48405 29.9218 7.31969 29.9218Z" fill="black"/>
<path fill-rule="evenodd" clip-rule="evenodd" d="M33.5154 29.9221H4.42793C3.65684 29.9221 3.65684 28.7502 4.42793 28.7502H33.5154C34.2865 28.7502 34.2868 29.9221 33.5154 29.9221Z" fill="black"/>
<path fill-rule="evenodd" clip-rule="evenodd" d="M1.07603 16.7344C0.52202 16.7344 0.473387 16.1628 0.345945 15.6868C-1.37877 9.24876 3.50973 2.95605 10.1004 2.95605C14.6786 2.95605 18.7023 6.0381 19.8844 10.4517C19.9984 10.8762 20.3092 11.6022 19.6342 11.7829L1.07603 16.7347V16.7344ZM10.1007 4.12706C4.31803 4.12706 -0.0498578 9.60589 1.49087 15.4304L18.7656 10.8018C17.7246 6.86662 14.1703 4.12706 10.1007 4.12706Z" fill="black"/>
<path fill-rule="evenodd" clip-rule="evenodd" d="M6.01115 15.4123C5.81984 15.4123 5.63263 15.3191 5.52043 15.1474C2.55381 10.6169 7.11418 3.6129 7.16047 3.54288C7.32366 3.29591 7.64505 3.20977 7.91077 3.34132C7.98606 3.37882 15.4331 7.24778 15.1339 12.5713C15.0906 13.348 13.921 13.2727 13.9641 12.5057C14.1794 8.67103 9.40433 5.55734 7.86009 4.6547C6.97473 6.20861 4.39689 11.2931 6.49983 14.5055C6.75823 14.8999 6.46496 15.412 6.01086 15.412L6.01115 15.4123Z" fill="black"/>
<path fill-rule="evenodd" clip-rule="evenodd" d="M12.8572 23.8879C12.5985 23.8879 12.3615 23.7153 12.2915 23.4534L9.71397 13.8338C9.51416 13.0887 10.6465 12.7849 10.8463 13.5305L13.4238 23.1502C13.524 23.5234 13.2416 23.8879 12.8572 23.8879Z" fill="black"/>
<path fill-rule="evenodd" clip-rule="evenodd" d="M29.8442 12.7055C28.2932 12.7055 27.032 11.4437 27.032 9.89303C27.032 8.34234 28.2938 7.08081 29.8442 7.08081C31.3949 7.08081 32.657 8.34263 32.657 9.89303C32.657 11.444 31.3952 12.7055 29.8442 12.7055ZM29.8442 8.25269C27.6853 8.25269 27.6859 11.534 29.8442 11.534C32.0034 11.534 32.0034 8.25269 29.8442 8.25269Z" fill="black"/>
<path fill-rule="evenodd" clip-rule="evenodd" d="M29.8442 6.79808C29.0461 6.79808 29.2582 5.68128 29.2582 4.69426C29.2582 3.92288 30.4301 3.92288 30.4301 4.69426C30.4301 5.68245 30.6422 6.79808 29.8442 6.79808Z" fill="black"/>
<path fill-rule="evenodd" clip-rule="evenodd" d="M32.4474 7.87637C31.9309 7.87637 31.6623 7.24678 32.0335 6.87559C32.7319 6.17744 33.3715 5.23789 33.9357 5.80215C34.5006 6.36699 33.5593 7.00508 32.8614 7.7044C32.7474 7.81895 32.5974 7.87637 32.4474 7.87637Z" fill="black"/>
<path fill-rule="evenodd" clip-rule="evenodd" d="M35.044 10.4792C34.0569 10.4792 32.9404 10.6913 32.9404 9.89323C32.9404 9.09518 34.0575 9.30729 35.044 9.30729C35.8151 9.30729 35.8153 10.4792 35.044 10.4792Z" fill="black"/>
<path fill-rule="evenodd" clip-rule="evenodd" d="M33.5207 14.1557C33.1147 14.1557 32.4947 13.3738 32.0324 12.9112C31.4869 12.3651 32.316 11.5368 32.8615 12.0823C33.5594 12.7802 34.5001 13.4203 33.9353 13.9846C33.8213 14.0986 33.671 14.156 33.521 14.156L33.5207 14.1557Z" fill="black"/>
<path fill-rule="evenodd" clip-rule="evenodd" d="M29.8442 15.6788C29.0461 15.6788 29.2582 14.5617 29.2582 13.5747C29.2582 12.8036 30.4301 12.8036 30.4301 13.5747C30.4301 14.5628 30.6422 15.6788 29.8442 15.6788Z" fill="black"/>
<path fill-rule="evenodd" clip-rule="evenodd" d="M26.1681 14.1558C25.6502 14.1558 25.3836 13.5256 25.7536 13.1556C26.4514 12.4577 27.0916 11.5173 27.6558 12.0821C28.2195 12.6464 27.2826 13.2857 26.5824 13.9844C26.4678 14.0984 26.3178 14.1558 26.1681 14.1558Z" fill="black"/>
<path fill-rule="evenodd" clip-rule="evenodd" d="M26.1634 10.4792C25.1764 10.4792 24.0596 10.6913 24.0596 9.89323C24.0596 9.09518 25.1764 9.30729 26.1634 9.30729C26.9348 9.30729 26.9348 10.4792 26.1634 10.4792Z" fill="black"/>
<path fill-rule="evenodd" clip-rule="evenodd" d="M27.2414 7.87653C26.835 7.87653 26.2177 7.09518 25.7534 6.63141C25.2073 6.0859 26.037 5.25709 26.5822 5.80289C27.2809 6.50221 28.2205 7.1403 27.6556 7.70456C27.5411 7.81911 27.3908 7.87653 27.2414 7.87653Z" fill="black"/>
<path fill-rule="evenodd" clip-rule="evenodd" d="M48.1777 29.9221H33.5154C32.7441 29.9221 32.7443 28.7502 33.5154 28.7502H48.1777C48.9488 28.7502 48.9488 29.9221 48.1777 29.9221Z" fill="black"/>
<path fill-rule="evenodd" clip-rule="evenodd" d="M38.0798 34.7824C37.7564 34.7824 37.4939 34.5196 37.4939 34.1965V21.3606C37.4939 19.8448 38.7267 18.6125 40.2422 18.6125C42.7788 18.6125 43.7292 21.9465 42.405 21.9465C42.0818 21.9465 41.819 21.684 41.819 21.3606C41.819 19.2852 38.6667 19.2855 38.6667 21.3606V34.1962C38.6658 34.5196 38.403 34.7824 38.0798 34.7824Z" fill="black"/>
<path fill-rule="evenodd" clip-rule="evenodd" d="M45.0886 34.7824C44.7652 34.7824 44.5027 34.5196 44.5027 34.1965V21.3606C44.5027 19.8448 45.7355 18.6125 47.251 18.6125C49.7873 18.6125 50.738 21.9465 49.4134 21.9465C49.0903 21.9465 48.8275 21.684 48.8275 21.3606C48.8275 19.2855 45.6752 19.2849 45.6752 21.3606V34.1962C45.6746 34.5196 45.4118 34.7824 45.0883 34.7824H45.0886Z" fill="black"/>
<path fill-rule="evenodd" clip-rule="evenodd" d="M45.0887 24.553H38.0797C37.3083 24.553 37.3086 23.3811 38.0797 23.3811H45.0887C45.8601 23.3811 45.8601 24.553 45.0887 24.553Z" fill="black"/>
<path fill-rule="evenodd" clip-rule="evenodd" d="M45.0887 27.2373H38.0797C37.3083 27.2373 37.3086 26.0654 38.0797 26.0654H45.0887C45.8601 26.0654 45.8601 27.2373 45.0887 27.2373Z" fill="black"/>
<path fill-rule="evenodd" clip-rule="evenodd" d="M45.0887 29.9221H38.0797C37.3083 29.9221 37.3086 28.7502 38.0797 28.7502H45.0887C45.8601 28.7502 45.8601 29.9221 45.0887 29.9221Z" fill="black"/>
<path fill-rule="evenodd" clip-rule="evenodd" d="M45.0887 32.6057H38.0797C37.3083 32.6057 37.3086 31.4338 38.0797 31.4338H45.0887C45.8601 31.4338 45.8601 32.6057 45.0887 32.6057Z" fill="black"/>
</g>
<defs>
<clipPath id="clip0_83_444">
<rect width="50" height="50" fill="white"/>
</clipPath>
</defs>
</svg>
