<svg width="50" height="50" viewBox="0 0 50 50" fill="none" xmlns="http://www.w3.org/2000/svg">
<g clip-path="url(#clip0_83_497)">
<path d="M17.6138 28.2827C18.3483 27.5473 18.7511 26.4333 18.7501 25.1485C18.7501 24.6918 18.6982 24.2178 18.5955 23.7396C17.9942 20.9412 15.8397 18.75 13.6892 18.75C12.7004 18.75 11.8256 19.2007 11.2254 20.0186C10.6955 20.7397 10.4157 21.6909 10.4168 22.7682C10.4168 23.2239 10.4686 23.6969 10.5713 24.1761V24.1771C11.1725 26.9755 13.3271 29.1667 15.4776 29.1667C16.2974 29.1667 17.036 28.8604 17.6138 28.2827ZM12.6079 23.7406C12.5367 23.4049 12.5001 23.0773 12.5001 22.7671C12.5001 22.1455 12.6435 21.6064 12.9049 21.2504C13.7585 20.0785 16.0014 21.5841 16.5589 24.1771C16.6301 24.5117 16.6668 24.8383 16.6668 25.1495C16.6677 25.8688 16.4755 26.474 16.1398 26.8097C15.2375 27.71 13.141 26.2177 12.6079 23.7406Z" fill="black"/>
<path d="M36.3108 18.75C34.1604 18.75 32.0059 20.9412 31.4046 23.7396C31.3019 24.2178 31.25 24.6918 31.25 25.1476C31.249 26.4334 31.6519 27.5473 32.3862 28.2827C32.9641 28.8605 33.7025 29.1667 34.5225 29.1667C36.673 29.1667 38.8274 26.9755 39.4287 24.1771V24.1761C39.5314 23.697 39.5833 23.2239 39.5833 22.7692C39.5843 21.6909 39.3046 20.7398 38.7746 20.0186C38.1744 19.2007 37.2996 18.75 36.3108 18.75ZM37.3922 23.7406C36.8592 26.2177 34.7596 27.713 33.8603 26.8097C33.5245 26.4739 33.3323 25.8687 33.3333 25.1485C33.3333 24.8383 33.3699 24.5117 33.4411 24.1771C33.8643 22.2066 35.2936 20.8333 36.3107 20.8333C36.6322 20.8333 36.8896 20.9696 37.095 21.2504C37.3564 21.6064 37.4999 22.1456 37.4999 22.7682C37.5 23.0774 37.4634 23.405 37.3922 23.7406Z" fill="black"/>
<path d="M34.2539 15.8194V15.8184C34.3251 15.442 34.3638 15.0768 34.373 14.7258C34.4075 13.3525 33.9996 12.1562 33.2225 11.3587C32.6213 10.7422 31.8533 10.4167 30.9998 10.4167C28.8219 10.4167 26.6968 12.6191 26.1628 15.4318C26.0916 15.8082 26.053 16.1734 26.0438 16.5244C26.0092 17.8977 26.4171 19.094 27.1943 19.8915C27.7954 20.508 28.5635 20.8334 29.4169 20.8334C31.5949 20.8333 33.72 18.631 34.2539 15.8194ZM32.2897 14.675C32.2846 14.9181 32.2561 15.1704 32.2073 15.4308C31.7302 17.9363 29.6194 19.3981 28.6866 18.4368C28.3102 18.0512 28.1067 17.3738 28.1271 16.5751C28.1322 16.332 28.1607 16.0788 28.2095 15.8193C28.5819 13.8631 29.9785 12.5 30.9998 12.5C31.2867 12.5 31.5257 12.6027 31.7302 12.8132C32.1066 13.1989 32.31 13.8764 32.2897 14.675Z" fill="black"/>
<path d="M25 0C11.2152 0 0 11.2152 0 25C0 38.7848 11.2152 50 25 50C38.7848 50 50 38.7848 50 25C50 11.2152 38.7848 0 25 0ZM25 47.9167C12.3637 47.9167 2.0833 37.6363 2.0833 25C2.0833 19.0561 4.37705 13.6512 8.10166 9.57461L16.5818 18.0548C17.1862 19.116 18.0188 19.9625 18.9545 20.4274L22.2087 23.6816C20.6802 24.6526 20.0379 26.3445 19.6137 27.5167C19.4642 27.9287 19.279 28.4424 19.1508 28.595C18.7245 29.1087 18.2007 29.5848 17.6452 30.0884C16.2262 31.3752 14.6179 32.834 14.5833 35.2133C14.566 36.4727 14.9546 37.5428 15.7084 38.3078C16.5313 39.142 17.75 39.5835 19.2312 39.5835C20.8984 39.5835 21.9482 39.0291 22.7915 38.5835C23.5138 38.202 24.0834 37.9009 24.9989 37.9009C25.9154 37.9009 26.4861 38.202 27.2084 38.5835C28.0517 39.0291 29.1025 39.5835 30.7687 39.5835C32.2499 39.5835 33.4686 39.142 34.2915 38.3078C34.7283 37.8646 35.0266 37.3093 35.2103 36.6834L40.4253 41.8984C36.3488 45.6229 30.9439 47.9167 25 47.9167ZM18.2698 12.8133C19.1996 11.8489 21.3124 13.3128 21.7905 15.8183C21.8394 16.0787 21.8679 16.3319 21.8729 16.5771C21.8933 17.3736 21.6898 18.0512 21.3135 18.4367C21.0033 18.755 20.5613 18.7861 20.0956 18.6227L18.272 16.799C18.0648 16.3887 17.8893 15.9384 17.7929 15.4309C17.744 15.1704 17.7155 14.9182 17.7104 14.673C17.69 13.8764 17.8935 13.1988 18.2698 12.8133ZM23.7449 25.218L33.2259 34.6989C33.2642 34.8786 33.3306 35.0466 33.3333 35.2418C33.3435 35.9417 33.1665 36.4809 32.8074 36.845C32.2733 37.3862 31.4046 37.5001 30.7688 37.5001C29.6184 37.5001 28.9521 37.1481 28.181 36.7412C27.361 36.3078 26.4323 35.8176 25 35.8176C23.5677 35.8176 22.6379 36.3079 21.819 36.7412C21.0479 37.1481 20.3816 37.5001 19.2312 37.5001C18.5954 37.5001 17.7267 37.3861 17.1926 36.845C16.8335 36.4809 16.6564 35.9417 16.6667 35.2429C16.6881 33.7688 17.7796 32.778 19.045 31.6316C19.6289 31.1017 20.2332 30.5533 20.754 29.9268C21.1142 29.4934 21.3268 28.9064 21.5729 28.2259C22.0955 26.7815 22.6016 25.666 23.7449 25.218ZM41.8983 40.4254L35.1459 33.673C34.6265 32.1571 33.4382 31.0708 32.3547 30.0883C31.7992 29.5848 31.2754 29.1087 30.8491 28.596C30.7209 28.4424 30.5358 27.9287 30.3862 27.5167C29.7637 25.7965 28.721 22.9167 24.9988 22.9167C24.7967 22.9167 24.6316 22.9556 24.4448 22.972L21.9678 20.4949C22.2701 20.3416 22.5553 20.148 22.8056 19.8913C23.5827 19.0938 23.9906 17.8975 23.9561 16.5263C23.9469 16.1732 23.9082 15.8081 23.837 15.4307C23.3029 12.6189 21.1779 10.4166 19 10.4166C18.1465 10.4166 17.3785 10.7421 16.7773 11.3586C16.1057 12.0478 15.7301 13.0441 15.6572 14.1844L9.57461 8.10166C13.6512 4.37715 19.0561 2.0833 25 2.0833C37.6363 2.0833 47.9167 12.3637 47.9167 25C47.9167 30.9439 45.6229 36.3488 41.8983 40.4254Z" fill="black"/>
</g>
<defs>
<clipPath id="clip0_83_497">
<rect width="50" height="50" fill="white"/>
</clipPath>
</defs>
</svg>
