<svg width="50" height="50" viewBox="0 0 50 50" fill="none" xmlns="http://www.w3.org/2000/svg">
<path d="M47.8664 25.518H46.1308C45.9682 22.879 45.3255 20.332 44.2131 17.9375C44.0434 17.5709 43.6085 17.4122 43.2419 17.5819C42.8753 17.7521 42.7162 18.187 42.8864 18.5535C43.9083 20.7542 44.5045 23.0938 44.6648 25.518H11.1618C10.7578 25.518 10.4305 25.8453 10.4305 26.2493C10.4305 26.6533 10.7578 26.9806 11.1618 26.9806H47.8664C48.2365 26.9806 48.5371 27.2816 48.5371 27.6516V28.5442C48.5371 28.9143 48.2365 29.2152 47.8664 29.2152H2.13356C1.76353 29.2152 1.46294 28.9143 1.46294 28.5442V27.6516C1.46294 27.2816 1.76353 26.9806 2.13356 26.9806H7.75261C8.15659 26.9806 8.48427 26.6533 8.48427 26.2493C8.48427 25.8453 8.15659 25.518 7.75261 25.518H5.33524C5.65758 20.6593 7.74117 16.1392 11.253 12.7205C14.6374 9.42612 19.0105 7.48672 23.6843 7.17926C23.687 7.17926 23.6897 7.17964 23.6923 7.17926C23.8914 7.16629 24.0883 7.15637 24.2828 7.14912C24.3217 7.14798 24.3603 7.14607 24.3992 7.14493C24.4686 7.14264 24.5377 7.14111 24.6059 7.13959C24.7372 7.1373 24.8684 7.13501 25 7.13501C25.1747 7.13501 25.3494 7.13844 25.5238 7.14302C25.5753 7.14455 25.6264 7.14607 25.6783 7.1476C25.8125 7.15218 25.9464 7.15904 26.0803 7.16629C26.1513 7.1701 26.2222 7.17392 26.2936 7.1785C32.2983 7.57294 37.8227 10.6956 41.2605 15.7028C41.489 16.0355 41.9445 16.1205 42.2775 15.8916C42.6105 15.6631 42.6952 15.2077 42.4664 14.8746C39.0835 9.9472 33.8181 6.71997 27.9984 5.8876C28.363 5.3215 28.5679 4.65508 28.5679 3.95699C28.5679 3.55949 28.3905 2.82669 27.2026 2.38953C26.6094 2.17133 25.827 2.05078 25 2.05078C24.1726 2.05078 23.3902 2.17133 22.797 2.38953C21.6091 2.82669 21.4321 3.55949 21.4321 3.95699C21.4321 4.65317 21.6362 5.31845 21.9986 5.88341C17.58 6.50864 13.4819 8.50906 10.2325 11.6722C6.43654 15.3675 4.19388 20.261 3.86925 25.5177H2.13356C0.957108 25.518 0 26.4751 0 27.6516V28.5442C0 29.7211 0.957108 30.6782 2.13356 30.6782H10.0128C9.61952 30.9475 9.24263 31.2496 8.88977 31.5849L8.87527 31.5987C8.85277 31.6196 8.83141 31.6422 8.81195 31.6662L5.33943 35.8829C4.90379 35.6064 4.38805 35.5057 3.87917 35.6033C3.34854 35.7048 2.88963 36.0069 2.58675 36.454L1.22108 38.4678C0.596619 39.389 0.837708 40.6475 1.75819 41.2727L11.1031 47.6212C11.4418 47.8512 11.8332 47.971 12.2341 47.971C12.3615 47.971 12.4901 47.9588 12.6183 47.9343C13.1485 47.8329 13.6074 47.5307 13.9103 47.0837L15.276 45.0699C15.9004 44.1486 15.6597 42.8902 14.7392 42.2649L14.6858 42.2287C15.3362 41.4906 16.2033 40.9615 17.1467 40.7433C19.1345 40.2828 21.4737 40.5792 23.0602 40.8421C25.0229 41.1671 27.0844 41.0561 29.0218 40.5209L31.715 39.7766C33.5091 39.2807 35.1601 38.4457 36.6226 37.2944C36.6337 37.2856 36.6444 37.2768 36.655 37.2673L41.2788 33.1722C42.067 32.5691 42.2386 31.5247 41.9666 30.6782H47.8664C49.0429 30.6782 50 29.7211 50 28.5446V27.6516C50 26.4751 49.0429 25.518 47.8664 25.518ZM25 3.51372C26.2318 3.51372 26.9699 3.81851 27.1049 3.98788C27.095 4.68178 26.7441 5.32188 26.173 5.70564C26.0292 5.69801 25.8873 5.69191 25.7458 5.68657C25.6981 5.68504 25.6504 5.68275 25.6027 5.68161C25.3986 5.67551 25.1972 5.67245 25 5.67245C24.86 5.67245 24.7173 5.67436 24.5735 5.67741C24.5041 5.67856 24.4343 5.68047 24.3645 5.68275C24.2813 5.68542 24.1974 5.6881 24.1135 5.69153C24.0177 5.69572 23.922 5.69992 23.8266 5.70526C23.2555 5.3215 22.905 4.6814 22.8951 3.98788C23.0301 3.81851 23.7682 3.51372 25 3.51372ZM30.2452 31.031C30.1907 30.9074 30.1254 30.7899 30.0518 30.6782H37.0674L34.034 32.6859L29.71 33.9367L29.5631 33.9401C30.3955 33.2462 30.6992 32.0614 30.2452 31.031ZM22.3137 30.6782L21.2582 30.8983L20.4422 30.6782H22.3137ZM14.0652 44.249L12.6999 46.2627C12.6163 46.3863 12.4897 46.4695 12.3432 46.4977C12.1971 46.5256 12.0483 46.4951 11.9251 46.4111L2.58026 40.0627C2.3262 39.8903 2.25983 39.5432 2.43225 39.2891L3.79791 37.2749C3.88145 37.1517 4.00772 37.0682 4.15421 37.0403C4.18968 37.0335 4.22516 37.03 4.26025 37.03C4.37088 37.03 4.47884 37.0632 4.5723 37.1269L5.07698 37.4695C5.07698 37.4699 5.07736 37.4699 5.07736 37.4699L13.9172 43.475C14.1712 43.6474 14.2376 43.9949 14.0652 44.249ZM40.3812 32.0171C40.3637 32.0297 40.3469 32.0435 40.3305 32.058L35.7018 36.158C34.3967 37.1815 32.9243 37.9246 31.3255 38.3663L28.6324 39.1106C26.8982 39.5901 25.0542 39.6896 23.2998 39.399C21.59 39.1159 19.0586 38.7989 16.8167 39.3181C15.5182 39.6187 14.3326 40.3648 13.4701 41.4024L6.5567 36.7062L9.91211 32.6313C11.1813 31.4331 12.7907 30.7217 14.3318 30.6782H14.3616C14.8396 30.6702 15.3454 30.8109 15.8806 30.9608C15.9882 30.9906 16.0954 31.0207 16.2029 31.0497L21.0461 32.3563C21.1571 32.386 21.2734 32.3895 21.386 32.3658L27.729 31.0432C28.0167 30.9837 28.3188 31.0421 28.558 31.2042C28.7125 31.3091 28.833 31.4533 28.9066 31.6208C29.1241 32.114 28.9192 32.6931 28.4332 32.9433L26.2691 34.0893C25.9697 34.248 25.8186 34.5913 25.9037 34.9194C25.9892 35.2478 26.2878 35.4713 26.6273 35.4668L29.8374 35.3973C29.9011 35.3958 29.9641 35.3863 30.0247 35.3687L34.5478 34.0603C34.6191 34.0397 34.6867 34.0084 34.7485 33.9676L39.3116 30.9471C39.6946 30.7106 40.2042 30.5161 40.4755 30.9162C40.6868 31.2275 40.6918 31.7879 40.3812 32.0171Z" fill="black"/>
</svg>
