<svg width="50" height="50" viewBox="0 0 50 50" fill="none" xmlns="http://www.w3.org/2000/svg">
<g clip-path="url(#clip0_83_414)">
<path d="M35.4067 16.8517L34.8717 15.0909C34.1921 13.0907 32.0198 12.0202 30.0195 12.6997C28.8943 13.082 28.0107 13.9657 27.6284 15.0909L27.0934 16.8517C26.6432 18.3367 26.5487 19.9068 26.8176 21.435C27.0628 22.7217 27.8796 23.8271 29.0376 24.4392L28.4384 37.8334C28.3582 38.581 28.6007 39.3273 29.1051 39.885C30.1897 41.0715 32.031 41.154 33.2175 40.0693C33.2816 40.0107 33.3431 39.9492 33.4017 39.885C33.8949 39.3432 34.1369 38.6187 34.0684 37.8892L33.4659 24.4375C34.6223 23.8252 35.4378 22.7205 35.6826 21.435C35.9514 19.9068 35.8569 18.3367 35.4067 16.8517ZM34.0409 21.145C33.8605 22.0694 33.2017 22.8279 32.3117 23.1359C31.9739 23.2629 31.7563 23.5929 31.7726 23.9534L32.4059 38.0209C32.4351 38.2968 32.344 38.5719 32.1559 38.7759C31.6541 39.2726 30.846 39.2726 30.3442 38.7759C30.1467 38.5555 30.057 38.2588 30.0992 37.9659L30.7276 23.9534C30.7438 23.5929 30.5262 23.2629 30.1884 23.1359C29.2984 22.8279 28.6396 22.0694 28.4592 21.145C28.2363 19.8763 28.3149 18.5729 28.6884 17.34L29.2234 15.5784C29.6374 14.4591 30.8803 13.8873 31.9996 14.3013C32.5914 14.5202 33.0579 14.9867 33.2767 15.5784L33.8117 17.34C34.1849 18.573 34.2634 19.8763 34.0409 21.145Z" fill="black"/>
<path d="M22.5001 12.5C22.0399 12.5 21.6667 12.8731 21.6667 13.3333V20.4883L19.4109 22.7442C19.244 22.9104 19.1553 23.1397 19.1667 23.375L19.8959 37.9583C19.9133 38.2728 19.7991 38.5804 19.5809 38.8075C19.1248 39.2677 18.3819 39.271 17.9215 38.8148C17.919 38.8124 17.9166 38.8099 17.9142 38.8075C17.6959 38.5804 17.5819 38.2728 17.5992 37.9583L18.3334 23.375C18.3451 23.1398 18.2566 22.9106 18.0901 22.7442L15.8334 20.4883V13.3333C15.8334 12.8731 15.4603 12.5 15.0001 12.5C14.5399 12.5 14.1667 12.8731 14.1667 13.3333V20.8333C14.1667 21.0544 14.2547 21.2663 14.4109 21.4225L16.6492 23.6617L15.9384 37.8775C15.8628 39.4303 17.0603 40.7505 18.6131 40.8261C20.1659 40.9018 21.4861 39.7043 21.5617 38.1515C21.5662 38.0602 21.5662 37.9689 21.5617 37.8776L20.8509 23.6618L23.0892 21.4226C23.2455 21.2664 23.3334 21.0545 23.3334 20.8334V13.3334C23.3334 12.8731 22.9603 12.5 22.5001 12.5Z" fill="black"/>
<path d="M17.5001 12.5C17.0399 12.5 16.6667 12.8731 16.6667 13.3333V20C16.6667 20.4602 17.0399 20.8333 17.5001 20.8333C17.9603 20.8333 18.3334 20.4602 18.3334 20V13.3333C18.3334 12.8731 17.9603 12.5 17.5001 12.5Z" fill="black"/>
<path d="M20.0001 12.5C19.5399 12.5 19.1667 12.8731 19.1667 13.3333V20C19.1667 20.4602 19.5399 20.8333 20.0001 20.8333C20.4603 20.8333 20.8334 20.4602 20.8334 20V13.3333C20.8334 12.8731 20.4603 12.5 20.0001 12.5Z" fill="black"/>
<path d="M25 0C11.1929 0 0 11.1929 0 25C0 38.8071 11.1929 50 25 50C38.8071 50 50 38.8071 50 25C49.9844 11.1994 38.8006 0.015625 25 0ZM25 48.3333C12.1133 48.3333 1.66667 37.8867 1.66667 25C1.66667 12.1133 12.1133 1.66667 25 1.66667C37.8867 1.66667 48.3333 12.1133 48.3333 25C48.3186 37.8805 37.8805 48.3186 25 48.3333Z" fill="black"/>
<path d="M27.7052 40.6428C27.6605 40.1848 27.2529 39.8497 26.7947 39.8944C26.784 39.8954 26.7733 39.8967 26.7626 39.8981L26.7659 39.8973C25.5927 40.0335 24.4075 40.0335 23.2342 39.8973C22.7769 39.8437 22.3629 40.1708 22.3092 40.6281C22.2556 41.0854 22.5828 41.4995 23.0401 41.5531C24.3412 41.7051 25.6556 41.7051 26.9567 41.5531C27.4147 41.5085 27.7498 41.1009 27.7052 40.6428Z" fill="black"/>
<path d="M37.7501 14.2617C37.4543 13.9091 36.9287 13.8629 36.5761 14.1588C36.575 14.1597 36.5738 14.1608 36.5726 14.1617C36.2208 14.4584 36.176 14.984 36.4726 15.3359C41.4971 21.3004 41.1127 30.1201 35.5884 35.625C35.2624 35.9499 35.2614 36.4777 35.5863 36.8038C35.9112 37.1298 36.439 37.1308 36.7651 36.8059C42.9043 30.6899 43.3325 20.8897 37.7501 14.2617Z" fill="black"/>
<path d="M28.9309 8.79922C25.6742 8.0187 22.2585 8.22849 19.1218 9.40172C18.6909 9.5637 18.4731 10.0443 18.6351 10.4751C18.7572 10.7997 19.0676 11.0146 19.4144 11.0149C19.5141 11.0144 19.6128 10.9962 19.7059 10.9609C22.5307 9.90453 25.6066 9.71589 28.5393 10.4192C28.9867 10.5273 29.437 10.2524 29.5451 9.80505C29.6532 9.35766 29.3783 8.90734 28.9309 8.79922Z" fill="black"/>
<path d="M14.3743 35.5833C11.565 32.7789 9.99053 28.9696 10.0001 25C9.99189 21.8285 10.9965 18.7373 12.8676 16.1767C13.1442 15.8088 13.0701 15.2864 12.7022 15.0098C12.3343 14.7332 11.8119 14.8073 11.5353 15.1752C11.5304 15.1818 11.5256 15.1883 11.521 15.195C6.70293 21.8188 7.41189 30.9616 13.1934 36.7633C13.5193 37.0894 14.0478 37.0896 14.3739 36.7638C14.6999 36.4379 14.7001 35.9094 14.3743 35.5833Z" fill="black"/>
</g>
<defs>
<clipPath id="clip0_83_414">
<rect width="50" height="50" fill="white"/>
</clipPath>
</defs>
</svg>
